<svg class="icon" style="width: 1em;height: 1em;vertical-align: middle;fill: currentColor;overflow: hidden;" viewBox="0 0 1024 1024" version="1.1" xmlns="http://www.w3.org/2000/svg" p-id="2331"><path d="M880.014222 112.014222H144.014222c-17.720889 0-32 14.279111-32 31.971556v736c0 17.720889 14.279111 32 31.971556 32h736c17.720889 0 32-14.279111 32-31.971556V144.014222c0-17.720889-14.279111-32-31.971556-32zM349.297778 793.713778H230.599111V411.875556h118.698667v381.809777z m-59.306667-434.005334a68.835556 68.835556 0 1 1 0-137.642666 68.835556 68.835556 0 0 1 0 137.642666z m503.722667 434.005334h-118.613334v-185.713778c0-44.288-0.796444-101.205333-61.724444-101.205333-61.667556 0-71.168 48.213333-71.168 97.991111v188.928h-118.499556V411.875556h113.777778v52.195555h1.621334c15.786667-30.008889 54.499556-61.724444 112.298666-61.724444 120.206222 0 142.307556 79.132444 142.307556 181.930666v209.379556z" fill="#B1B4BD" p-id="2332"></path></svg>
