<svg class="icon" style="width: 1em;height: 1em;vertical-align: middle;fill: currentColor;overflow: hidden;" viewBox="0 0 1024 1024" version="1.1" xmlns="http://www.w3.org/2000/svg" p-id="2760"><path d="M512 378.709333A133.575111 133.575111 0 0 0 378.709333 512 133.575111 133.575111 0 0 0 512 645.319111 133.575111 133.575111 0 0 0 645.290667 512 133.575111 133.575111 0 0 0 512 378.709333zM911.815111 512c0-55.182222 0.483556-109.880889-2.616889-164.977778-3.100444-64-17.692444-120.803556-64.483555-167.623111-46.933333-46.904889-103.594667-61.383111-167.594667-64.483555-55.210667-3.128889-109.909333-2.616889-165.006222-2.616889-55.182222 0-109.909333-0.483556-165.006222 2.616889-64 3.100444-120.803556 17.692444-167.594667 64.483555C132.551111 226.332444 118.101333 283.022222 115.000889 347.022222c-3.100444 55.182222-2.588444 109.880889-2.588445 164.977778 0 55.096889-0.512 109.909333 2.588445 165.006222 3.128889 64 17.692444 120.803556 64.512 167.594667 46.904889 46.933333 103.594667 61.411556 167.594667 64.512 55.182222 3.100444 109.909333 2.588444 164.977777 2.588444 55.210667 0 109.909333 0.512 165.034667-2.588444 64-3.128889 120.775111-17.692444 167.594667-64.512 46.904889-46.904889 61.383111-103.594667 64.483555-167.594667 3.214222-55.096889 2.616889-109.795556 2.616889-164.977778zM512 717.084444A204.8 204.8 0 0 1 306.915556 512 204.8 204.8 0 0 1 512 306.915556 204.8 204.8 0 0 1 717.084444 512 204.8 204.8 0 0 1 512 717.084444z m213.504-370.688a47.843556 47.843556 0 0 1-47.900444-47.900444c0-26.481778 21.390222-47.900444 47.900444-47.900444a47.843556 47.843556 0 0 1 44.259556 66.275555 47.843556 47.843556 0 0 1-44.259556 29.525333z" fill="#B1B4BD" p-id="2761"></path></svg>
