<svg class="icon" style="width: 1em;height: 1em;vertical-align: middle;fill: currentColor;overflow: hidden;" viewBox="0 0 1024 1024" version="1.1" xmlns="http://www.w3.org/2000/svg" p-id="2793"><path d="M498.602667 432.014222a1573.262222 1573.262222 0 0 0-91.192889-142.307555 246.897778 246.897778 0 0 0-136.220445 172.202666c11.008 0.199111 112.412444 0.682667 227.413334-29.923555z m66.503111 21.788445a761.457778 761.457778 0 0 1 21.617778 48.298666c81.777778-10.296889 163.185778 6.200889 171.264 7.907556a245.077333 245.077333 0 0 0-55.466667-153.315556c-5.319111 7.111111-46.535111 60.017778-137.415111 97.109334z m314.88-341.816889H144.014222c-17.692444 0-32 14.307556-32 32.028444v736c0 17.692444 14.307556 32 32.028445 32h736c17.692444 0 32-14.307556 32-32.028444V144.014222c0-17.692444-14.307556-32-32.028445-32zM512 800c-158.805333 0-288-129.194667-288-288S353.194667 224 512 224 800 353.194667 800 512 670.805333 800 512 800z m89.713778-259.100444c32.170667 88.405333 45.283556 160.426667 47.786666 175.388444a245.987556 245.987556 0 0 0 105.415112-164.892444c-8.419556-2.588444-76.117333-22.784-153.201778-10.496z m-72.533334-26.396445c3.214222-0.995556 6.428444-1.991111 9.728-2.901333a838.570667 838.570667 0 0 0-19.911111-41.699556c-122.794667 36.807111-242.090667 35.185778-252.785777 34.986667-0.113778 2.503111-0.113778 5.006222-0.113778 7.509333 0 63.203556 23.893333 120.888889 63.203555 164.494222 5.489778-9.585778 72.988444-121.400889 199.907556-162.417777z m145.92-186.197333a245.191111 245.191111 0 0 0-220.814222-55.096889c6.826667 9.102222 51.512889 69.888 91.818667 143.985778 87.495111-32.796444 124.501333-82.602667 128.995555-88.888889z m-121.088 224.483555c-138.723556 48.298667-188.586667 144.611556-193.024 153.6A244.821333 244.821333 0 0 0 512 758.328889a244.053333 244.053333 0 0 0 96.085333-19.512889c-3.697778-21.589333-17.891556-96.796444-52.48-186.595556l-1.592889 0.597334z" fill="#B1B4BD" p-id="2794"></path></svg>
