<svg class="icon" style="width: 1em;height: 1em;vertical-align: middle;fill: currentColor;overflow: hidden;" viewBox="0 0 1024 1024" version="1.1" xmlns="http://www.w3.org/2000/svg" p-id="746"><path d="M880.014222 112.014222H144.014222c-17.720889 0-32 14.279111-32 31.971556v736c0 17.720889 14.279111 32 31.971556 32h736c17.720889 0 32-14.279111 32-31.971556V144.014222c0-17.720889-14.279111-32-31.971556-32z m-152.718222 289.678222c0.284444 4.693333 0.284444 9.614222 0.284444 14.421334 0 146.773333-111.786667 315.875556-316.074666 315.875555-63.004444 0-121.400889-18.289778-170.609778-49.777777 9.016889 0.995556 17.607111 1.393778 26.794667 1.393777a222.805333 222.805333 0 0 0 137.898666-47.416889 111.075556 111.075556 0 0 1-103.793777-76.999111c17.095111 2.503111 32.512 2.503111 50.090666-1.991111a111.018667 111.018667 0 0 1-88.888889-108.999111v-1.422222a111.132444 111.132444 0 0 0 50.090667 14.108444 111.132444 111.132444 0 0 1-49.493333-92.387555c0-20.707556 5.404444-39.594667 15.104-56.007111a315.278222 315.278222 0 0 0 228.977777 116.110222c-15.672889-75.491556 40.732444-136.590222 108.515556-136.590222 32 0 60.814222 13.368889 81.123556 34.986666a219.392 219.392 0 0 0 70.485333-26.709333 110.563556 110.563556 0 0 1-48.810667 61.127111 219.733333 219.733333 0 0 0 64-17.322667 232.789333 232.789333 0 0 1-55.694222 57.6z" fill="#B1B4BD" p-id="747"></path></svg>
