<svg class="icon" style="width: 1em;height: 1em;vertical-align: middle;fill: currentColor;overflow: hidden;" viewBox="0 0 1024 1024" version="1.1" xmlns="http://www.w3.org/2000/svg" p-id="2166"><path d="M941.312 296.106667a112.270222 112.270222 0 0 0-79.217778-79.303111C792.206222 197.973333 512 197.973333 512 197.973333s-280.177778 0-350.094222 18.688a112.128 112.128 0 0 0-79.217778 79.303111C64 365.994667 64 512 64 512s0 146.005333 18.688 215.893333a112.298667 112.298667 0 0 0 79.217778 79.303111C231.793778 826.026667 512 826.026667 512 826.026667s280.177778 0 350.094222-18.773334a112.128 112.128 0 0 0 79.217778-79.331555c18.688-69.888 18.688-215.893333 18.688-215.893334s0-146.005333-18.688-215.893333zM422.968889 645.973333v-267.946666l231.992889 132.977777-231.992889 134.997334z" fill="#B1B4BD" p-id="2167"></path></svg>
